<svg xmlns="http://www.w3.org/2000/svg" width="87.099" height="80.374" viewBox="0 0 87.099 80.374">
  <path id="Icon_weather-day-sunny-overcast" data-name="Icon weather-day-sunny-overcast" d="M3.708,46.141A3.2,3.2,0,0,0,4.731,48.59a3.648,3.648,0,0,0,2.632.95H13.54a3.534,3.534,0,0,0,2.522-.987,3.213,3.213,0,0,0,1.06-2.412,3.415,3.415,0,0,0-1.023-2.6,3.566,3.566,0,0,0-2.522-1.023H7.363a3.553,3.553,0,0,0-2.632,1.023A3.308,3.308,0,0,0,3.708,46.141Zm6.469,22.588a12.573,12.573,0,0,0,3.874,9.211,12.493,12.493,0,0,0,9.174,3.874H48.3a12.319,12.319,0,0,0,9.1-3.838,12.693,12.693,0,0,0,3.8-9.247,11.8,11.8,0,0,0-.768-4.5,20.968,20.968,0,0,0,7.2-7.749,21.535,21.535,0,0,0,.914-18.9A21.687,21.687,0,0,0,56.888,25.929a21.1,21.1,0,0,0-8.48-1.754,21.446,21.446,0,0,0-11.038,2.961A21.916,21.916,0,0,0,29.4,35.1a21.608,21.608,0,0,0-2.887,11v1.243a14.993,14.993,0,0,0-7.237,9.1,12.712,12.712,0,0,0-6.616,4.642A12.576,12.576,0,0,0,10.177,68.729Zm5.7-51.755a3.247,3.247,0,0,0,.95,2.449L22.714,25.6a3.858,3.858,0,0,0,5.154,0,3.444,3.444,0,0,0,1.023-2.559,3.56,3.56,0,0,0-1.023-2.559l-6.031-6.031a3.792,3.792,0,0,0-2.559-1.06,3.175,3.175,0,0,0-2.485,1.023A3.664,3.664,0,0,0,15.879,16.974Zm1.535,51.755a5.682,5.682,0,0,1,1.462-3.947A5.57,5.57,0,0,1,22.6,62.917l2.266-.292c.475,0,.731-.292.731-.841l.329-2.047A8.163,8.163,0,0,1,28.6,54.474a7.654,7.654,0,0,1,5.409-2.12,7.853,7.853,0,0,1,5.519,2.12,8.256,8.256,0,0,1,2.741,5.263l.292,2.376c.219.548.512.841.877.841h4.825a5.7,5.7,0,0,1,4.094,1.718,5.441,5.441,0,0,1,1.718,4.094,5.824,5.824,0,0,1-1.718,4.2,5.532,5.532,0,0,1-4.094,1.754H23.226a5.441,5.441,0,0,1-4.13-1.754A5.875,5.875,0,0,1,17.414,68.729ZM33.569,45.373a14.827,14.827,0,0,1,4.642-10.088,14.277,14.277,0,0,1,10.2-4.094,14.079,14.079,0,0,1,10.38,4.349A14.506,14.506,0,0,1,63.065,46.1,14.215,14.215,0,0,1,61.2,53.232a14.914,14.914,0,0,1-5.044,5.3,11.288,11.288,0,0,0-7.42-2.668,14.85,14.85,0,0,0-5.629-7.639,15.268,15.268,0,0,0-9.064-2.851h-.475ZM44.863,13.392a3.534,3.534,0,0,0,1.06,2.559,3.6,3.6,0,0,0,6.14-2.559V4.839A3.213,3.213,0,0,0,51,2.427a3.763,3.763,0,0,0-5.08,0,3.213,3.213,0,0,0-1.06,2.412Zm23.1,55.666a3.683,3.683,0,0,0,.987,2.559l5.994,5.921q2.3,2.3,5.154,0a3.2,3.2,0,0,0,.95-2.485A3.423,3.423,0,0,0,80.1,72.6l-6.177-6.1a3.483,3.483,0,0,0-2.485-.914,3.332,3.332,0,0,0-2.485.987A3.389,3.389,0,0,0,67.963,69.058Zm0-46.09A3.8,3.8,0,0,0,68.95,25.6a3.623,3.623,0,0,0,4.971,0L80.1,19.423a3.169,3.169,0,0,0,.95-2.449,3.336,3.336,0,0,0-1.06-2.522,3.59,3.59,0,0,0-2.559-1.023,3.431,3.431,0,0,0-2.485,1.06L68.95,20.446A3.415,3.415,0,0,0,67.963,22.968Zm9.43,23.173a3.2,3.2,0,0,0,1.023,2.449,3.648,3.648,0,0,0,2.632.95h6.177a3.534,3.534,0,0,0,2.522-.987,3.213,3.213,0,0,0,1.06-2.412,3.415,3.415,0,0,0-1.023-2.6,3.566,3.566,0,0,0-2.522-1.023H81.085a3.553,3.553,0,0,0-2.632,1.023A3.332,3.332,0,0,0,77.393,46.141Z" transform="translate(-3.708 -1.44)" fill="#dddb75"/>
</svg>
