<svg id="Component_51_2" data-name="Component 51 – 2" xmlns="http://www.w3.org/2000/svg" width="19.951" height="19.95" viewBox="0 0 19.951 19.95">
  <path id="Path_2914" data-name="Path 2914" d="M1649.18,40.169a9.975,9.975,0,1,0,9.976,9.975A9.975,9.975,0,0,0,1649.18,40.169Zm2.924,5.75a.159.159,0,0,1-.16.159h-1.268a.563.563,0,0,0-.563.563v1.327h1.8a.159.159,0,0,1,.159.173l-.158,1.871a.159.159,0,0,1-.158.146h-1.645v6.209a.159.159,0,0,1-.159.159h-2.269a.159.159,0,0,1-.159-.159V50.158h-1.135a.159.159,0,0,1-.159-.159V48.128a.159.159,0,0,1,.159-.159h1.135v-1.8a2.276,2.276,0,0,1,2.276-2.276h2.142a.159.159,0,0,1,.16.159Z" transform="translate(-1639.205 -40.169)" fill="#9daca9"/>
</svg>
