<svg id="Icon_ionic-ios-gift" data-name="Icon ionic-ios-gift" xmlns="http://www.w3.org/2000/svg" width="75.938" height="81.779" viewBox="0 0 75.938 81.779">
  <path id="Path_2925" data-name="Path 2925" d="M73.471,21.234H58.083A10.725,10.725,0,0,0,61.789,13.2C61.789,7.16,56.623,2.25,50.27,2.25a10.184,10.184,0,0,0-8.926,5,10.184,10.184,0,0,0-8.926-5C26.065,2.25,20.9,7.16,20.9,13.2A10.662,10.662,0,0,0,24.6,21.234H9.216a5.835,5.835,0,0,0-5.841,5.841v3.651a.732.732,0,0,0,.73.73H78.582a.732.732,0,0,0,.73-.73V27.076A5.835,5.835,0,0,0,73.471,21.234ZM50.27,7.361A6,6,0,0,1,56.422,13.2a6,6,0,0,1-6.152,5.841H44.118C44.118,10.282,46.875,7.361,50.27,7.361Zm-17.853,0c3.4,0,6.152,2.921,6.152,11.683H32.417A6,6,0,0,1,26.266,13.2,6,6,0,0,1,32.417,7.361Z" transform="translate(-3.375 -2.25)" fill="#f1e79f"/>
  <path id="Path_2926" data-name="Path 2926" d="M4.5,16.788V57.313a5.859,5.859,0,0,0,5.841,5.841H36.993V15.328H5.96A1.465,1.465,0,0,0,4.5,16.788Z" transform="translate(-1.579 18.625)" fill="#f1e79f"/>
  <path id="Path_2927" data-name="Path 2927" d="M50.017,15.328H18.984V63.154H45.636a5.859,5.859,0,0,0,5.841-5.841V16.788A1.465,1.465,0,0,0,50.017,15.328Z" transform="translate(21.54 18.625)" fill="#f1e79f"/>
</svg>
