<svg xmlns="http://www.w3.org/2000/svg" width="76.264" height="75.054" viewBox="0 0 76.264 75.054">
  <path id="Icon_awesome-kiss-wink-heart" data-name="Icon awesome-kiss-wink-heart" d="M75.826,60.258a6.772,6.772,0,0,0-8.035-3.919l-1.271.333L66.172,55.4a6.779,6.779,0,0,0-7.415-4.994,6.333,6.333,0,0,0-5.145,7.959l3.465,12.5a1.548,1.548,0,0,0,1.876,1.074l12.559-3.253A6.311,6.311,0,0,0,75.826,60.258Zm-26.874-.605a11.242,11.242,0,0,1,20.7-8.383,12.411,12.411,0,0,1,2.815.439,37.544,37.544,0,1,0-19.9,20.746C52.523,72.348,48.952,59.652,48.952,59.652ZM25.421,35.668a4.842,4.842,0,1,1,4.842-4.842A4.837,4.837,0,0,1,25.421,35.668ZM43.58,59.274c0,2.905-4.343,6.28-10.819,6.658a1.217,1.217,0,0,1-.545-2.33l2.572-1.089c1.967-.832,3.147-2.043,3.147-3.253s-1.18-2.421-3.147-3.253l-2.572-1.089a1.276,1.276,0,0,1,0-2.24l2.572-1.089c1.967-.832,3.147-2.043,3.147-3.253s-1.18-2.421-3.147-3.253l-2.572-1.089a1.215,1.215,0,0,1,.545-2.33c6.476.378,10.819,3.753,10.819,6.658,0,1.967-2.028,4.131-5.326,5.447C41.552,55.143,43.58,57.307,43.58,59.274ZM46,32.188a1.813,1.813,0,0,1-3-1.634c.605-3.813,5.175-6.371,9.064-6.371s8.459,2.557,9.064,6.371a1.811,1.811,0,0,1-3,1.634L56.7,30.9c-2.24-2-6.991-2-9.23,0Z" transform="translate(0 -0.563)" fill="#f1e79f"/>
</svg>
