<svg xmlns="http://www.w3.org/2000/svg" width="96.844" height="67.791" viewBox="0 0 96.844 67.791">
  <path id="Icon_awesome-shuttle-van" data-name="Icon awesome-shuttle-van" d="M95.161,29.283,74.81,4.863A7.265,7.265,0,0,0,69.231,2.25H4.842A4.843,4.843,0,0,0,0,7.092v43.58a4.843,4.843,0,0,0,4.842,4.842H9.684a14.527,14.527,0,0,0,29.053,0H58.106a14.527,14.527,0,1,0,29.053,0H92a4.843,4.843,0,0,0,4.842-4.842V33.933A7.271,7.271,0,0,0,95.161,29.283ZM9.684,26.461V11.934H24.211V26.461ZM24.211,62.777a7.263,7.263,0,1,1,7.263-7.263A7.263,7.263,0,0,1,24.211,62.777ZM48.422,26.461H33.9V11.934H48.422ZM72.633,62.777A7.263,7.263,0,1,1,79.9,55.514,7.263,7.263,0,0,1,72.633,62.777ZM58.106,26.461V11.934H68.1L80.2,26.461Z" transform="translate(0 -2.25)" fill="#f1e79f"/>
</svg>
