<svg xmlns="http://www.w3.org/2000/svg" width="51.818" height="51.313" viewBox="0 0 51.818 51.313">
  <path id="Icon_ionic-md-gift" data-name="Icon ionic-md-gift" d="M49.86,14.045H44.21a8.058,8.058,0,0,0,.469-2.627,7.736,7.736,0,0,0-7.771-7.8,7.623,7.623,0,0,0-6.476,3.454l-1.3,1.764-1.3-1.789a7.883,7.883,0,0,0-6.476-3.676,7.977,7.977,0,0,0-7.3,10.67H8.415a5.186,5.186,0,0,0-5.156,5.267L3.234,49.482a5.022,5.022,0,0,0,5.02,5.205H49.786a5.227,5.227,0,0,0,5.267-5.205V19.312A5.225,5.225,0,0,0,49.86,14.045ZM37.032,8.679a2.59,2.59,0,1,1-2.59,2.59A2.6,2.6,0,0,1,37.032,8.679Zm-15.788,0a2.59,2.59,0,1,1-2.59,2.59A2.6,2.6,0,0,1,21.243,8.679ZM8.415,19.312H21.576l-5.39,7.438,4.194,3.084,6.167-8.523.025-.025-.025,28.2H8.415ZM49.86,49.482H31.728V21.31L37.9,29.833l4.194-3.084L36.7,19.3H49.86Z" transform="translate(-3.234 -3.375)" fill="#dddb75"/>
</svg>
