<svg xmlns="http://www.w3.org/2000/svg" width="55.028" height="55.028" viewBox="0 0 55.028 55.028">
  <path id="Icon_awesome-coins" data-name="Icon awesome-coins" d="M0,43.56v4.589c0,3.794,9.243,6.878,20.635,6.878s20.635-3.085,20.635-6.878V43.56c-4.439,3.128-12.553,4.589-20.635,4.589S4.439,46.687,0,43.56Zm34.392-29.8c11.392,0,20.635-3.085,20.635-6.878S45.785,0,34.392,0,13.757,3.085,13.757,6.878,23,13.757,34.392,13.757ZM0,32.286v5.546c0,3.794,9.243,6.878,20.635,6.878s20.635-3.085,20.635-6.878V32.286c-4.439,3.654-12.564,5.546-20.635,5.546S4.439,35.94,0,32.286Zm44.71,1.182c6.158-1.193,10.318-3.407,10.318-5.954V22.925c-2.493,1.763-6.158,2.966-10.318,3.708ZM20.635,17.2C9.243,17.2,0,21.044,0,25.794s9.243,8.6,20.635,8.6,20.635-3.848,20.635-8.6S32.028,17.2,20.635,17.2ZM44.2,23.247c6.449-1.161,10.823-3.439,10.823-6.051V12.607c-3.815,2.7-10.371,4.149-17.271,4.492C40.927,18.636,43.259,20.7,44.2,23.247Z" fill="#dddb75"/>
</svg>
