<svg id="Component_52_2" data-name="Component 52 – 2" xmlns="http://www.w3.org/2000/svg" width="20" height="20" viewBox="0 0 20 20">
  <path id="Subtraction_1" data-name="Subtraction 1" d="M10,20A10,10,0,0,1,6.109.786a10,10,0,0,1,7.785,18.428A9.937,9.937,0,0,1,10,20ZM11.623,8.937c.8,0,.966.706.966,1.3V13.3H14.5v-3.29a2.79,2.79,0,0,0-.627-1.952,2.066,2.066,0,0,0-1.569-.63,1.885,1.885,0,0,0-1.719.948V7.566H8.675c.025.531,0,5.687,0,5.736h1.907V10.1a1.275,1.275,0,0,1,.063-.465A1.061,1.061,0,0,1,11.623,8.937Zm-5.91-1.37V13.3H7.62V7.566ZM6.679,4.8a.994.994,0,1,0-.024,1.982h.012A.994.994,0,1,0,6.679,4.8Z" fill="#9daca9"/>
</svg>
