<svg xmlns="http://www.w3.org/2000/svg" width="37" height="37" viewBox="0 0 37 37">
  <g id="Group_106" data-name="Group 106" transform="translate(-637 -476)">
    <circle id="Ellipse_13" data-name="Ellipse 13" cx="18.5" cy="18.5" r="18.5" transform="translate(637 476)" fill="#fff"/>
    <g id="Component_65_1" data-name="Component 65 – 1" transform="translate(645.939 486.457)">
      <path id="Path_741" data-name="Path 741" d="M11.721,29.2a1.079,1.079,0,1,1-1.079-1.079A1.079,1.079,0,0,1,11.721,29.2Z" transform="translate(-5.611 -13.014)" fill="#f5beba"/>
      <path id="Path_742" data-name="Path 742" d="M27.506,29.2a1.079,1.079,0,1,1-1.079-1.079A1.079,1.079,0,0,1,27.506,29.2Z" transform="translate(-11.302 -13.014)" fill="#f5beba"/>
      <path id="Path_743" data-name="Path 743" d="M22.071,7.564a.264.264,0,0,0-.234-.189L7.195,5.959a.451.451,0,0,1-.337-.211,4.578,4.578,0,0,0-.548-.836c-.346-.423-1-.409-2.194-.418a.655.655,0,0,0-.733.634.643.643,0,0,0,.7.634,5.973,5.973,0,0,1,1.169.085c.211.063.382.409.445.71a.017.017,0,0,0,0,.013c.009.054.09.459.09.463l1.8,9.513a3.5,3.5,0,0,0,.652,1.605,1.794,1.794,0,0,0,1.479.728H20.358a.639.639,0,0,0,.647-.6.626.626,0,0,0-.629-.656H9.712a.522.522,0,0,1-.373-.126,2.017,2.017,0,0,1-.517-1.169L8.629,15.26a.025.025,0,0,1,.018-.027L21.132,13.12a.263.263,0,0,0,.22-.234l.719-5.206A.256.256,0,0,0,22.071,7.564Z" transform="translate(-3.382 -4.493)" fill="none" stroke="#f5beba" stroke-width="1.5"/>
    </g>
  </g>
</svg>
