<svg id="Component_50_2" data-name="Component 50 – 2" xmlns="http://www.w3.org/2000/svg" width="19.95" height="19.95" viewBox="0 0 19.95 19.95">
  <path id="Path_2913" data-name="Path 2913" d="M1588.924,40.169a9.975,9.975,0,1,0,9.975,9.975A9.975,9.975,0,0,0,1588.924,40.169Zm-2.533,15.055c-.016,0-.2,0,0,0Zm.414.011c.017,0,.012,0,.006,0C1586.842,55.218,1587,55.235,1586.8,55.235Zm8.224-8.927a.3.3,0,0,1-.061.2,4.853,4.853,0,0,1-.978,1.022c-.056.042-.15.086-.15.165a7.579,7.579,0,0,1-2,5.529,7.439,7.439,0,0,1-7.222,1.688,6.853,6.853,0,0,1-1.4-.558c-.148-.08-.293-.164-.436-.258-.036-.029-.063-.056-.032-.075s.054-.017.166,0a4.93,4.93,0,0,0,2.089-.268,3.194,3.194,0,0,0,1.376-.729c.005-.008.011-.008.016-.016-.091-.022-.183-.022-.274-.038a2.7,2.7,0,0,1-2.015-1.687c-.027-.067,0-.1.07-.089a2.9,2.9,0,0,0,.959-.029,1.531,1.531,0,0,1-.325-.1,2.6,2.6,0,0,1-1.6-2.071,1.529,1.529,0,0,1-.016-.29c.005-.067.035-.089.094-.051a2.583,2.583,0,0,0,.978.273c-.11-.085-.212-.18-.312-.273a2.569,2.569,0,0,1-.438-3.035c.048-.073.081-.073.14-.005a7.873,7.873,0,0,0,5.066,2.579c.053.008.059,0,.05-.059a2.711,2.711,0,0,1,.027-1.059,2.567,2.567,0,0,1,.5-1,2.676,2.676,0,0,1,.838-.685,2.614,2.614,0,0,1,1.039-.293,2.485,2.485,0,0,1,1.1.176,2.6,2.6,0,0,1,.714.438,1.177,1.177,0,0,1,.129.132.1.1,0,0,0,.1.027,6.336,6.336,0,0,0,1.474-.564.07.07,0,0,1,.066-.005c.021.016.013.043,0,.065a2.274,2.274,0,0,1-.413.752c-.118.146-.413.508-.613.542a5.05,5.05,0,0,0,1.241-.354c.05-.023.046-.033.046,0Z" transform="translate(-1578.949 -40.169)" fill="#9daca9"/>
</svg>
