<svg width="38" height="38" viewBox="0 0 38 38" fill="none" xmlns="http://www.w3.org/2000/svg">
<path d="M18.7828 37.5663C29.1466 37.5663 37.548 29.1568 37.548 18.7831C37.548 8.40949 29.1466 0 18.7828 0C8.41906 0 0.0175781 8.40949 0.0175781 18.7831C0.0175781 29.1568 8.41906 37.5663 18.7828 37.5663Z" fill="#147DBA"/>
<path d="M18.7827 32.5742C26.4028 32.5742 32.5801 26.391 32.5801 18.7637C32.5801 11.1363 26.4028 4.95312 18.7827 4.95312C11.1627 4.95312 4.98535 11.1363 4.98535 18.7637C4.98535 26.391 11.1627 32.5742 18.7827 32.5742Z" fill="#46AE4A"/>
<path d="M26.5186 18.8331C26.5186 21.8627 25.0048 24.5353 22.6982 26.126V26.2627L37.4422 18.914L22.6982 11.4036V11.5402C25.0048 13.131 26.5186 15.8035 26.5186 18.8331Z" fill="#F6EEE4"/>
<path d="M10.929 18.8331C10.929 15.8035 12.4428 13.131 14.7494 11.5402V11.4036L0.00585938 18.7523L14.7498 26.2627V26.126C12.4432 24.5353 10.929 21.8627 10.929 18.8331Z" fill="black"/>
<path d="M18.7812 28.2168C23.9599 28.2168 28.158 24.0146 28.158 18.831C28.158 13.6474 23.9599 9.44519 18.7812 9.44519C13.6025 9.44519 9.4043 13.6474 9.4043 18.831C9.4043 24.0146 13.6025 28.2168 18.7812 28.2168Z" fill="#EE622F"/>
<path d="M18.7822 23.6048C21.4492 23.6048 23.6112 21.4407 23.6112 18.7712C23.6112 16.1016 21.4492 13.9375 18.7822 13.9375C16.1152 13.9375 13.9531 16.1016 13.9531 18.7712C13.9531 21.4407 16.1152 23.6048 18.7822 23.6048Z" fill="#F2A733"/>
</svg>
